<svg id="my-svg" width="100%" xmlns="http://www.w3.org/2000/svg" xmlns:xlink="http://www.w3.org/1999/xlink" class="classDiagram" style="max-width: 1397.66px; background-color: white;" viewBox="0 0 1397.65625 450" role="graphics-document document" aria-roledescription="class"><style>#my-svg{font-family:"trebuchet ms",verdana,arial,sans-serif;font-size:16px;fill:#333;}@keyframes edge-animation-frame{from{stroke-dashoffset:0;}}@keyframes dash{to{stroke-dashoffset:0;}}#my-svg .edge-animation-slow{stroke-dasharray:9,5!important;stroke-dashoffset:900;animation:dash 50s linear infinite;stroke-linecap:round;}#my-svg .edge-animation-fast{stroke-dasharray:9,5!important;stroke-dashoffset:900;animation:dash 20s linear infinite;stroke-linecap:round;}#my-svg .error-icon{fill:#552222;}#my-svg .error-text{fill:#552222;stroke:#552222;}#my-svg .edge-thickness-normal{stroke-width:1px;}#my-svg .edge-thickness-thick{stroke-width:3.5px;}#my-svg .edge-pattern-solid{stroke-dasharray:0;}#my-svg .edge-thickness-invisible{stroke-width:0;fill:none;}#my-svg .edge-pattern-dashed{stroke-dasharray:3;}#my-svg .edge-pattern-dotted{stroke-dasharray:2;}#my-svg .marker{fill:#333333;stroke:#333333;}#my-svg .marker.cross{stroke:#333333;}#my-svg svg{font-family:"trebuchet ms",verdana,arial,sans-serif;font-size:16px;}#my-svg p{margin:0;}#my-svg g.classGroup text{fill:#9370DB;stroke:none;font-family:"trebuchet ms",verdana,arial,sans-serif;font-size:10px;}#my-svg g.classGroup text .title{font-weight:bolder;}#my-svg .nodeLabel,#my-svg .edgeLabel{color:#131300;}#my-svg .edgeLabel .label rect{fill:#ECECFF;}#my-svg .label text{fill:#131300;}#my-svg .labelBkg{background:#ECECFF;}#my-svg .edgeLabel .label span{background:#ECECFF;}#my-svg .classTitle{font-weight:bolder;}#my-svg .node rect,#my-svg .node circle,#my-svg .node ellipse,#my-svg .node polygon,#my-svg .node path{fill:#ECECFF;stroke:#9370DB;stroke-width:1px;}#my-svg .divider{stroke:#9370DB;stroke-width:1;}#my-svg g.clickable{cursor:pointer;}#my-svg g.classGroup rect{fill:#ECECFF;stroke:#9370DB;}#my-svg g.classGroup line{stroke:#9370DB;stroke-width:1;}#my-svg .classLabel .box{stroke:none;stroke-width:0;fill:#ECECFF;opacity:0.5;}#my-svg .classLabel .label{fill:#9370DB;font-size:10px;}#my-svg .relation{stroke:#333333;stroke-width:1;fill:none;}#my-svg .dashed-line{stroke-dasharray:3;}#my-svg .dotted-line{stroke-dasharray:1 2;}#my-svg #compositionStart,#my-svg .composition{fill:#333333!important;stroke:#333333!important;stroke-width:1;}#my-svg #compositionEnd,#my-svg .composition{fill:#333333!important;stroke:#333333!important;stroke-width:1;}#my-svg #dependencyStart,#my-svg .dependency{fill:#333333!important;stroke:#333333!important;stroke-width:1;}#my-svg #dependencyStart,#my-svg .dependency{fill:#333333!important;stroke:#333333!important;stroke-width:1;}#my-svg #extensionStart,#my-svg .extension{fill:transparent!important;stroke:#333333!important;stroke-width:1;}#my-svg #extensionEnd,#my-svg .extension{fill:transparent!important;stroke:#333333!important;stroke-width:1;}#my-svg #aggregationStart,#my-svg .aggregation{fill:transparent!important;stroke:#333333!important;stroke-width:1;}#my-svg #aggregationEnd,#my-svg .aggregation{fill:transparent!important;stroke:#333333!important;stroke-width:1;}#my-svg #lollipopStart,#my-svg .lollipop{fill:#ECECFF!important;stroke:#333333!important;stroke-width:1;}#my-svg #lollipopEnd,#my-svg .lollipop{fill:#ECECFF!important;stroke:#333333!important;stroke-width:1;}#my-svg .edgeTerminals{font-size:11px;line-height:initial;}#my-svg .classTitleText{text-anchor:middle;font-size:18px;fill:#333;}#my-svg .label-icon{display:inline-block;height:1em;overflow:visible;vertical-align:-0.125em;}#my-svg .node .label-icon path{fill:currentColor;stroke:revert;stroke-width:revert;}#my-svg :root{--mermaid-font-family:"trebuchet ms",verdana,arial,sans-serif;}</style><g><defs><marker id="my-svg_class-aggregationStart" class="marker aggregation class" refX="18" refY="7" markerWidth="190" markerHeight="240" orient="auto"><path d="M 18,7 L9,13 L1,7 L9,1 Z"/></marker></defs><defs><marker id="my-svg_class-aggregationEnd" class="marker aggregation class" refX="1" refY="7" markerWidth="20" markerHeight="28" orient="auto"><path d="M 18,7 L9,13 L1,7 L9,1 Z"/></marker></defs><defs><marker id="my-svg_class-extensionStart" class="marker extension class" refX="18" refY="7" markerWidth="190" markerHeight="240" orient="auto"><path d="M 1,7 L18,13 V 1 Z"/></marker></defs><defs><marker id="my-svg_class-extensionEnd" class="marker extension class" refX="1" refY="7" markerWidth="20" markerHeight="28" orient="auto"><path d="M 1,1 V 13 L18,7 Z"/></marker></defs><defs><marker id="my-svg_class-compositionStart" class="marker composition class" refX="18" refY="7" markerWidth="190" markerHeight="240" orient="auto"><path d="M 18,7 L9,13 L1,7 L9,1 Z"/></marker></defs><defs><marker id="my-svg_class-compositionEnd" class="marker composition class" refX="1" refY="7" markerWidth="20" markerHeight="28" orient="auto"><path d="M 18,7 L9,13 L1,7 L9,1 Z"/></marker></defs><defs><marker id="my-svg_class-dependencyStart" class="marker dependency class" refX="6" refY="7" markerWidth="190" markerHeight="240" orient="auto"><path d="M 5,7 L9,13 L1,7 L9,1 Z"/></marker></defs><defs><marker id="my-svg_class-dependencyEnd" class="marker dependency class" refX="13" refY="7" markerWidth="20" markerHeight="28" orient="auto"><path d="M 18,7 L9,13 L14,7 L9,1 Z"/></marker></defs><defs><marker id="my-svg_class-lollipopStart" class="marker lollipop class" refX="13" refY="7" markerWidth="190" markerHeight="240" orient="auto"><circle stroke="black" fill="transparent" cx="7" cy="7" r="6"/></marker></defs><defs><marker id="my-svg_class-lollipopEnd" class="marker lollipop class" refX="1" refY="7" markerWidth="190" markerHeight="240" orient="auto"><circle stroke="black" fill="transparent" cx="7" cy="7" r="6"/></marker></defs><g class="root"><g class="clusters"/><g class="edgePaths"><path d="M609.457,136.413L542.966,151.177C476.475,165.942,343.493,195.471,277.003,217.402C210.512,239.333,210.512,253.667,210.512,260.833L210.512,268" id="id_AppModule_SharedModule_1" class="edge-thickness-normal edge-pattern-solid relation" style=";;;" data-edge="true" data-et="edge" data-id="id_AppModule_SharedModule_1" data-points="W3sieCI6NjA5LjQ1NzAzMTI1LCJ5IjoxMzYuNDEyODUxNzk3MTU4NH0seyJ4IjoyMTAuNTExNzE4NzUsInkiOjIyNX0seyJ4IjoyMTAuNTExNzE4NzUsInkiOjI3NH1d" marker-end="url(#my-svg_class-dependencyEnd)"/><path d="M755.426,200L755.426,204.167C755.426,208.333,755.426,216.667,755.426,228C755.426,239.333,755.426,253.667,755.426,260.833L755.426,268" id="id_AppModule_PagesModule_2" class="edge-thickness-normal edge-pattern-solid relation" style=";;;" data-edge="true" data-et="edge" data-id="id_AppModule_PagesModule_2" data-points="W3sieCI6NzU1LjQyNTc4MTI1LCJ5IjoyMDB9LHsieCI6NzU1LjQyNTc4MTI1LCJ5IjoyMjV9LHsieCI6NzU1LjQyNTc4MTI1LCJ5IjoyNzR9XQ==" marker-end="url(#my-svg_class-dependencyEnd)"/><path d="M901.395,140.17L958.452,154.308C1015.51,168.446,1129.626,196.723,1186.684,214.028C1243.742,231.333,1243.742,237.667,1243.742,240.833L1243.742,244" id="id_AppModule_TodosModule_3" class="edge-thickness-normal edge-pattern-solid relation" style=";;;" data-edge="true" data-et="edge" data-id="id_AppModule_TodosModule_3" data-points="W3sieCI6OTAxLjM5NDUzMTI1LCJ5IjoxNDAuMTY5NjE5Nzg3Mzc1MzJ9LHsieCI6MTI0My43NDIxODc1LCJ5IjoyMjV9LHsieCI6MTI0My43NDIxODc1LCJ5IjoyNTB9XQ==" marker-end="url(#my-svg_class-dependencyEnd)"/></g><g class="edgeLabels"><g class="edgeLabel"><g class="label" data-id="id_AppModule_SharedModule_1" transform="translate(0, 0)"><foreignObject width="0" height="0"><div xmlns="http://www.w3.org/1999/xhtml" class="labelBkg" style="display: table-cell; white-space: nowrap; line-height: 1.5; max-width: 200px; text-align: center;"><span class="edgeLabel"></span></div></foreignObject></g></g><g class="edgeLabel"><g class="label" data-id="id_AppModule_PagesModule_2" transform="translate(0, 0)"><foreignObject width="0" height="0"><div xmlns="http://www.w3.org/1999/xhtml" class="labelBkg" style="display: table-cell; white-space: nowrap; line-height: 1.5; max-width: 200px; text-align: center;"><span class="edgeLabel"></span></div></foreignObject></g></g><g class="edgeLabel"><g class="label" data-id="id_AppModule_TodosModule_3" transform="translate(0, 0)"><foreignObject width="0" height="0"><div xmlns="http://www.w3.org/1999/xhtml" class="labelBkg" style="display: table-cell; white-space: nowrap; line-height: 1.5; max-width: 200px; text-align: center;"><span class="edgeLabel"></span></div></foreignObject></g></g></g><g class="nodes"><g class="node default" id="classId-AppModule-0" transform="translate(755.42578125, 104)"><g class="basic label-container"><path d="M-145.96875 -96 L145.96875 -96 L145.96875 96 L-145.96875 96" stroke="none" stroke-width="0" fill="#ECECFF" style=""/><path d="M-145.96875 -96 C-33.329461974770766 -96, 79.30982605045847 -96, 145.96875 -96 M-145.96875 -96 C-33.227961081085155 -96, 79.51282783782969 -96, 145.96875 -96 M145.96875 -96 C145.96875 -53.416688134773295, 145.96875 -10.83337626954659, 145.96875 96 M145.96875 -96 C145.96875 -19.593233701198812, 145.96875 56.813532597602375, 145.96875 96 M145.96875 96 C47.95311039137012 96, -50.062529217259765 96, -145.96875 96 M145.96875 96 C62.313722219837516 96, -21.34130556032497 96, -145.96875 96 M-145.96875 96 C-145.96875 44.8609557278845, -145.96875 -6.278088544230997, -145.96875 -96 M-145.96875 96 C-145.96875 44.9138437265809, -145.96875 -6.172312546838199, -145.96875 -96" stroke="#9370DB" stroke-width="1.3" fill="none" stroke-dasharray="0 0" style=""/></g><g class="annotation-group text" transform="translate(0, -72)"/><g class="label-group text" transform="translate(-41.203125, -72)"><g class="label" style="font-weight: bolder" transform="translate(0,-12)"><foreignObject width="82.40625" height="24"><div xmlns="http://www.w3.org/1999/xhtml" style="display: table-cell; white-space: nowrap; line-height: 1.5; max-width: 128px; text-align: center;"><span class="nodeLabel markdown-node-label" style=""><p>AppModule</p></span></div></foreignObject></g></g><g class="members-group text" transform="translate(-133.96875, -24)"><g class="label" style="" transform="translate(0,-12)"><foreignObject width="226.734375" height="24"><div xmlns="http://www.w3.org/1999/xhtml" style="display: table-cell; white-space: nowrap; line-height: 1.5; max-width: 262px; text-align: center;"><span class="nodeLabel markdown-node-label" style=""><p>+declarations: AppComponent[]</p></span></div></foreignObject></g><g class="label" style="" transform="translate(0,12)"><foreignObject width="136.265625" height="24"><div xmlns="http://www.w3.org/1999/xhtml" style="display: table-cell; white-space: nowrap; line-height: 1.5; max-width: 182px; text-align: center;"><span class="nodeLabel markdown-node-label" style=""><p>+imports: Module[]</p></span></div></foreignObject></g><g class="label" style="" transform="translate(0,36)"><foreignObject width="156.53125" height="24"><div xmlns="http://www.w3.org/1999/xhtml" style="display: table-cell; white-space: nowrap; line-height: 1.5; max-width: 199px; text-align: center;"><span class="nodeLabel markdown-node-label" style=""><p>+providers: Provider[]</p></span></div></foreignObject></g><g class="label" style="" transform="translate(0,60)"><foreignObject width="207.5" height="24"><div xmlns="http://www.w3.org/1999/xhtml" style="display: table-cell; white-space: nowrap; line-height: 1.5; max-width: 244px; text-align: center;"><span class="nodeLabel markdown-node-label" style=""><p>+bootstrap: AppComponent[]</p></span></div></foreignObject></g></g><g class="methods-group text" transform="translate(-133.96875, 96)"/><g class="divider" style=""><path d="M-145.96875 -48 C-63.27295476603797 -48, 19.42284046792406 -48, 145.96875 -48 M-145.96875 -48 C-62.58083817754169 -48, 20.807073644916613 -48, 145.96875 -48" stroke="#9370DB" stroke-width="1.3" fill="none" stroke-dasharray="0 0" style=""/></g><g class="divider" style=""><path d="M-145.96875 72 C-59.41907393085356 72, 27.130602138292886 72, 145.96875 72 M-145.96875 72 C-74.17228161820786 72, -2.3758132364157234 72, 145.96875 72" stroke="#9370DB" stroke-width="1.3" fill="none" stroke-dasharray="0 0" style=""/></g></g><g class="node default" id="classId-SharedModule-1" transform="translate(210.51171875, 346)"><g class="basic label-container"><path d="M-202.51171875 -72 L202.51171875 -72 L202.51171875 72 L-202.51171875 72" stroke="none" stroke-width="0" fill="#ECECFF" style=""/><path d="M-202.51171875 -72 C-105.61016018838522 -72, -8.708601626770445 -72, 202.51171875 -72 M-202.51171875 -72 C-113.39105123303334 -72, -24.270383716066675 -72, 202.51171875 -72 M202.51171875 -72 C202.51171875 -23.29455897695172, 202.51171875 25.41088204609656, 202.51171875 72 M202.51171875 -72 C202.51171875 -15.57817354059884, 202.51171875 40.84365291880232, 202.51171875 72 M202.51171875 72 C60.86981049871815 72, -80.7720977525637 72, -202.51171875 72 M202.51171875 72 C64.3125178627995 72, -73.88668302440101 72, -202.51171875 72 M-202.51171875 72 C-202.51171875 24.89697950217981, -202.51171875 -22.20604099564038, -202.51171875 -72 M-202.51171875 72 C-202.51171875 24.70578106845145, -202.51171875 -22.5884378630971, -202.51171875 -72" stroke="#9370DB" stroke-width="1.3" fill="none" stroke-dasharray="0 0" style=""/></g><g class="annotation-group text" transform="translate(0, -48)"/><g class="label-group text" transform="translate(-52.5703125, -48)"><g class="label" style="font-weight: bolder" transform="translate(0,-12)"><foreignObject width="105.140625" height="24"><div xmlns="http://www.w3.org/1999/xhtml" style="display: table-cell; white-space: nowrap; line-height: 1.5; max-width: 144px; text-align: center;"><span class="nodeLabel markdown-node-label" style=""><p>SharedModule</p></span></div></foreignObject></g></g><g class="members-group text" transform="translate(-190.51171875, 0)"><g class="label" style="" transform="translate(0,-12)"><foreignObject width="328.453125" height="24"><div xmlns="http://www.w3.org/1999/xhtml" style="display: table-cell; white-space: nowrap; line-height: 1.5; max-width: 355px; text-align: center;"><span class="nodeLabel markdown-node-label" style=""><p>+services: NotificationService, SpinnerService</p></span></div></foreignObject></g></g><g class="methods-group text" transform="translate(-190.51171875, 48)"><g class="label" style="" transform="translate(0,-12)"><foreignObject width="188.296875" height="24"><div xmlns="http://www.w3.org/1999/xhtml" style="display: table-cell; white-space: nowrap; line-height: 1.5; max-width: 232px; text-align: center;"><span class="nodeLabel markdown-node-label" style=""><p>+forRoot() : SharedModule</p></span></div></foreignObject></g></g><g class="divider" style=""><path d="M-202.51171875 -24 C-72.92294761353571 -24, 56.66582352292858 -24, 202.51171875 -24 M-202.51171875 -24 C-73.02081614490939 -24, 56.47008646018122 -24, 202.51171875 -24" stroke="#9370DB" stroke-width="1.3" fill="none" stroke-dasharray="0 0" style=""/></g><g class="divider" style=""><path d="M-202.51171875 24 C-61.36330438075839 24, 79.78510998848321 24, 202.51171875 24 M-202.51171875 24 C-90.52307090708516 24, 21.465576935829688 24, 202.51171875 24" stroke="#9370DB" stroke-width="1.3" fill="none" stroke-dasharray="0 0" style=""/></g></g><g class="node default" id="classId-PagesModule-2" transform="translate(755.42578125, 346)"><g class="basic label-container"><path d="M-292.40234375 -72 L292.40234375 -72 L292.40234375 72 L-292.40234375 72" stroke="none" stroke-width="0" fill="#ECECFF" style=""/><path d="M-292.40234375 -72 C-88.31642741198979 -72, 115.76948892602041 -72, 292.40234375 -72 M-292.40234375 -72 C-102.9311540889023 -72, 86.54003557219539 -72, 292.40234375 -72 M292.40234375 -72 C292.40234375 -24.706978381359015, 292.40234375 22.58604323728197, 292.40234375 72 M292.40234375 -72 C292.40234375 -36.06882341885766, 292.40234375 -0.13764683771532304, 292.40234375 72 M292.40234375 72 C157.50627267834744 72, 22.610201606694886 72, -292.40234375 72 M292.40234375 72 C72.36317811122439 72, -147.67598752755123 72, -292.40234375 72 M-292.40234375 72 C-292.40234375 33.47316502491452, -292.40234375 -5.053669950170956, -292.40234375 -72 M-292.40234375 72 C-292.40234375 23.75625256077373, -292.40234375 -24.487494878452537, -292.40234375 -72" stroke="#9370DB" stroke-width="1.3" fill="none" stroke-dasharray="0 0" style=""/></g><g class="annotation-group text" transform="translate(0, -48)"/><g class="label-group text" transform="translate(-47.4609375, -48)"><g class="label" style="font-weight: bolder" transform="translate(0,-12)"><foreignObject width="94.921875" height="24"><div xmlns="http://www.w3.org/1999/xhtml" style="display: table-cell; white-space: nowrap; line-height: 1.5; max-width: 138px; text-align: center;"><span class="nodeLabel markdown-node-label" style=""><p>PagesModule</p></span></div></foreignObject></g></g><g class="members-group text" transform="translate(-280.40234375, 0)"><g class="label" style="" transform="translate(0,-12)"><foreignObject width="214.84375" height="24"><div xmlns="http://www.w3.org/1999/xhtml" style="display: table-cell; white-space: nowrap; line-height: 1.5; max-width: 258px; text-align: center;"><span class="nodeLabel markdown-node-label" style=""><p>+routing: PagesRoutingModule</p></span></div></foreignObject></g><g class="label" style="" transform="translate(0,12)"><foreignObject width="513.34375" height="24"><div xmlns="http://www.w3.org/1999/xhtml" style="display: table-cell; white-space: nowrap; line-height: 1.5; max-width: 528px; text-align: center;"><span class="nodeLabel markdown-node-label" style=""><p>+components: HomeComponent, NgrxComponent, NotFoundComponent</p></span></div></foreignObject></g></g><g class="methods-group text" transform="translate(-280.40234375, 72)"/><g class="divider" style=""><path d="M-292.40234375 -24 C-135.81787581125198 -24, 20.76659212749604 -24, 292.40234375 -24 M-292.40234375 -24 C-77.46948654908675 -24, 137.4633706518265 -24, 292.40234375 -24" stroke="#9370DB" stroke-width="1.3" fill="none" stroke-dasharray="0 0" style=""/></g><g class="divider" style=""><path d="M-292.40234375 48 C-149.25290324078588 48, -6.103462731571767 48, 292.40234375 48 M-292.40234375 48 C-106.62057217391268 48, 79.16119940217465 48, 292.40234375 48" stroke="#9370DB" stroke-width="1.3" fill="none" stroke-dasharray="0 0" style=""/></g></g><g class="node default" id="classId-TodosModule-3" transform="translate(1243.7421875, 346)"><g class="basic label-container"><path d="M-145.9140625 -96 L145.9140625 -96 L145.9140625 96 L-145.9140625 96" stroke="none" stroke-width="0" fill="#ECECFF" style=""/><path d="M-145.9140625 -96 C-69.56014414959796 -96, 6.79377420080408 -96, 145.9140625 -96 M-145.9140625 -96 C-80.24646216929689 -96, -14.578861838593781 -96, 145.9140625 -96 M145.9140625 -96 C145.9140625 -27.722179400983862, 145.9140625 40.555641198032276, 145.9140625 96 M145.9140625 -96 C145.9140625 -32.85395184108574, 145.9140625 30.292096317828523, 145.9140625 96 M145.9140625 96 C77.70322852499531 96, 9.492394549990621 96, -145.9140625 96 M145.9140625 96 C77.29802112008566 96, 8.681979740171329 96, -145.9140625 96 M-145.9140625 96 C-145.9140625 50.1052890332918, -145.9140625 4.210578066583594, -145.9140625 -96 M-145.9140625 96 C-145.9140625 20.643789126195756, -145.9140625 -54.71242174760849, -145.9140625 -96" stroke="#9370DB" stroke-width="1.3" fill="none" stroke-dasharray="0 0" style=""/></g><g class="annotation-group text" transform="translate(0, -72)"/><g class="label-group text" transform="translate(-47.828125, -72)"><g class="label" style="font-weight: bolder" transform="translate(0,-12)"><foreignObject width="95.65625" height="24"><div xmlns="http://www.w3.org/1999/xhtml" style="display: table-cell; white-space: nowrap; line-height: 1.5; max-width: 139px; text-align: center;"><span class="nodeLabel markdown-node-label" style=""><p>TodosModule</p></span></div></foreignObject></g></g><g class="members-group text" transform="translate(-133.9140625, -24)"><g class="label" style="" transform="translate(0,-12)"><foreignObject width="220" height="24"><div xmlns="http://www.w3.org/1999/xhtml" style="display: table-cell; white-space: nowrap; line-height: 1.5; max-width: 258px; text-align: center;"><span class="nodeLabel markdown-node-label" style=""><p>+components: TodoComponent</p></span></div></foreignObject></g><g class="label" style="" transform="translate(0,12)"><foreignObject width="160.8125" height="24"><div xmlns="http://www.w3.org/1999/xhtml" style="display: table-cell; white-space: nowrap; line-height: 1.5; max-width: 205px; text-align: center;"><span class="nodeLabel markdown-node-label" style=""><p>+services: TodoService</p></span></div></foreignObject></g><g class="label" style="" transform="translate(0,36)"><foreignObject width="126.109375" height="24"><div xmlns="http://www.w3.org/1999/xhtml" style="display: table-cell; white-space: nowrap; line-height: 1.5; max-width: 170px; text-align: center;"><span class="nodeLabel markdown-node-label" style=""><p>+store: TodoStore</p></span></div></foreignObject></g><g class="label" style="" transform="translate(0,60)"><foreignObject width="168.34375" height="24"><div xmlns="http://www.w3.org/1999/xhtml" style="display: table-cell; white-space: nowrap; line-height: 1.5; max-width: 208px; text-align: center;"><span class="nodeLabel markdown-node-label" style=""><p>+models: TodoInterface</p></span></div></foreignObject></g></g><g class="methods-group text" transform="translate(-133.9140625, 96)"/><g class="divider" style=""><path d="M-145.9140625 -48 C-33.22493704050379 -48, 79.46418841899242 -48, 145.9140625 -48 M-145.9140625 -48 C-48.727605816370186 -48, 48.45885086725963 -48, 145.9140625 -48" stroke="#9370DB" stroke-width="1.3" fill="none" stroke-dasharray="0 0" style=""/></g><g class="divider" style=""><path d="M-145.9140625 72 C-72.16446231614778 72, 1.5851378677044465 72, 145.9140625 72 M-145.9140625 72 C-62.715982812223814 72, 20.482096875552372 72, 145.9140625 72" stroke="#9370DB" stroke-width="1.3" fill="none" stroke-dasharray="0 0" style=""/></g></g></g></g></g></svg>